<svg xmlns="http://www.w3.org/2000/svg" xmlns:xlink="http://www.w3.org/1999/xlink" viewBox="0 0 212.72 126.79">
  <defs>
    <linearGradient id="linear-gradient" y1="88.9" x2="50.33" y2="88.9" gradientUnits="userSpaceOnUse">
      <stop offset="0" stop-color="#f60e27"/>
      <stop offset="0.14" stop-color="#f83f2d"/>
      <stop offset="0.33" stop-color="#fb7e34"/>
      <stop offset="0.5" stop-color="#fcac39"/>
      <stop offset="0.63" stop-color="#fec83d"/>
      <stop offset="0.7" stop-color="#fed33e"/>
      <stop offset="0.74" stop-color="#fad33e"/>
      <stop offset="0.78" stop-color="#edd440"/>
      <stop offset="0.82" stop-color="#d9d641"/>
      <stop offset="0.86" stop-color="#bcd844"/>
      <stop offset="0.9" stop-color="#96da47"/>
      <stop offset="0.95" stop-color="#68dd4c"/>
      <stop offset="0.99" stop-color="#33e150"/>
      <stop offset="1" stop-color="#22e252"/>
    </linearGradient>
    <linearGradient id="linear-gradient-2" x1="54.33" y1="90.41" x2="158.4" y2="90.41" gradientUnits="userSpaceOnUse">
      <stop offset="0" stop-color="#22e252"/>
      <stop offset="0.32" stop-color="#2fb2f3"/>
      <stop offset="0.62" stop-color="#f60e27"/>
      <stop offset="0.89" stop-color="#fed33e"/>
      <stop offset="0.9" stop-color="#f3d43f"/>
      <stop offset="0.92" stop-color="#d7d642"/>
      <stop offset="0.94" stop-color="#a9d946"/>
      <stop offset="0.97" stop-color="#69dd4c"/>
      <stop offset="1" stop-color="#22e252"/>
    </linearGradient>
    <linearGradient id="linear-gradient-3" x1="162.4" y1="88.9" x2="212.72" y2="88.9" gradientUnits="userSpaceOnUse">
      <stop offset="0" stop-color="#22e252"/>
      <stop offset="0.99" stop-color="#2fb2f3"/>
    </linearGradient>
  </defs>
  <g id="Layer_2" data-name="Layer 2">
    <g id="Layer_1-2" data-name="Layer 1">
      <path d="M0,51l50.33,50.33v25.45L5.86,82.33A20,20,0,0,1,0,68.18Z" style="fill: url(#linear-gradient)"/>
      <path d="M61.4,58.92a14.78,14.78,0,0,0,4.2-2.78,7.72,7.72,0,0,0,2.53-6.21,13.57,13.57,0,0,0-2.25-6.52,35.05,35.05,0,0,0-4.68-5.78,26.15,26.15,0,0,0-8.69-5.94q-4.55-1.8-8.59,2.24a10.55,10.55,0,0,0-2.28,3.44,14.73,14.73,0,0,0-1,4.19,20.5,20.5,0,0,0,.09,4.55L54.15,59.58A13.18,13.18,0,0,0,61.4,58.92Z" style="fill: #474662"/>
      <path d="M54.33,126.79V101.34L98.08,57.45a11.64,11.64,0,0,1,16.48,0l43.84,43.9v25.45L114.55,83a11.64,11.64,0,0,0-16.46,0Z" style="fill: url(#linear-gradient-2)"/>
      <path d="M162.4,101.34v25.45l44.46-44.46a20,20,0,0,0,5.86-14.15V51Z" style="fill: url(#linear-gradient-3)"/>
      <path d="M93.57,56.44,52.33,97.68,1.41,46.77,11.23,37a2.92,2.92,0,0,1,2.17-.14,8.91,8.91,0,0,1,3.21,2.31L53.29,75.8l2.58-2.58a65.36,65.36,0,0,1-.5-9.3,18.46,18.46,0,0,0,7.73-.68,18,18,0,0,0,7.47-4.72,22.13,22.13,0,0,0,4.65-6.77,20.66,20.66,0,0,0,1.72-7.88,20.09,20.09,0,0,0-1.52-8,21.57,21.57,0,0,0-4.79-7.1,22.75,22.75,0,0,0-6.14-4.39,20.45,20.45,0,0,0-7.26-2,17.77,17.77,0,0,0-7.7,1.08A19.81,19.81,0,0,0,42.3,28.2a17.74,17.74,0,0,0-4.67,7,25.42,25.42,0,0,0-1.16,6.68L21.38,26.81,45.25,2.93a10,10,0,0,1,14.15,0L93.14,36.67l2.62.7a42.73,42.73,0,0,0,20.87.26l2.63-.63,0,0a2.92,2.92,0,0,1,2.17-.14,8.91,8.91,0,0,1,3.21,2.31L161.36,75.8l2.58-2.58a65.36,65.36,0,0,1-.5-9.3,18.46,18.46,0,0,0,7.73-.68,18,18,0,0,0,7.47-4.72,22.13,22.13,0,0,0,4.65-6.77A20.66,20.66,0,0,0,185,43.87a20.09,20.09,0,0,0-1.52-8,21.57,21.57,0,0,0-4.79-7.1,22.6,22.6,0,0,0-6.14-4.39,20.45,20.45,0,0,0-7.26-2,17.77,17.77,0,0,0-7.7,1.08,19.81,19.81,0,0,0-7.23,4.78,17.74,17.74,0,0,0-4.67,7,25.42,25.42,0,0,0-1.16,6.68L129.45,26.81,153.33,2.93a10,10,0,0,1,14.14,0l43.84,43.84L160.4,97.68,118.75,56,114,51.73a11.38,11.38,0,0,0-15.36.06Z" style="fill: #474662"/>
      <path d="M169.47,58.92a14.78,14.78,0,0,0,4.2-2.78,7.72,7.72,0,0,0,2.53-6.21A13.57,13.57,0,0,0,174,43.41a35.05,35.05,0,0,0-4.68-5.78,26.15,26.15,0,0,0-8.69-5.94Q156,29.89,152,33.93a10.55,10.55,0,0,0-2.28,3.44,14.73,14.73,0,0,0-1.05,4.19,20.5,20.5,0,0,0,.09,4.55l13.47,13.47A13.18,13.18,0,0,0,169.47,58.92Z" style="fill: #474662"/>
    </g>
  </g>
</svg>
