<?xml version="1.0" encoding="utf-8"?>
<!-- Generator: Adobe Illustrator 24.1.2, SVG Export Plug-In . SVG Version: 6.00 Build 0)  -->
<svg version="1.1" id="Layer_1" xmlns="http://www.w3.org/2000/svg" xmlns:xlink="http://www.w3.org/1999/xlink" x="0px" y="0px"
	 viewBox="0 0 245 240" style="enable-background:new 0 0 245 240;" xml:space="preserve">
<style type="text/css">
	.st0{fill:url(#SVGID_1_);}
	.st1{fill:url(#SVGID_2_);}
</style>
<linearGradient id="SVGID_1_" gradientUnits="userSpaceOnUse" x1="89.106" y1="127.9" x2="156.248" y2="127.9" gradientTransform="matrix(1 0 0 -1 0 242)">
	<stop  offset="0" style="stop-color:#F8011A"/>
	<stop  offset="8.444548e-02" style="stop-color:#FA3F1E"/>
	<stop  offset="0.1794" style="stop-color:#FC7E21"/>
	<stop  offset="0.2598" style="stop-color:#FEAC24"/>
	<stop  offset="0.3215" style="stop-color:#FFC825"/>
	<stop  offset="0.3571" style="stop-color:#FFD326"/>
	<stop  offset="0.6723" style="stop-color:#00E348"/>
	<stop  offset="0.9944" style="stop-color:#22B0F5"/>
</linearGradient>
<path class="st0" d="M101.1,101c-6.7,0-12,5.9-12,13.1s5.4,13.1,12,13.1c6.7,0,12-5.9,12-13.1C113.3,106.9,107.9,101,101.1,101z
	 M144.2,101c-6.7,0-12,5.9-12,13.1s5.4,13.1,12,13.1c6.7,0,12-5.9,12-13.1S150.9,101,144.2,101z"/>
<linearGradient id="SVGID_2_" gradientUnits="userSpaceOnUse" x1="19.25" y1="122" x2="225.75" y2="122" gradientTransform="matrix(1 0 0 -1 0 242)">
	<stop  offset="0" style="stop-color:#F8011A"/>
	<stop  offset="8.444548e-02" style="stop-color:#FA3F1E"/>
	<stop  offset="0.1794" style="stop-color:#FC7E21"/>
	<stop  offset="0.2598" style="stop-color:#FEAC24"/>
	<stop  offset="0.3215" style="stop-color:#FFC825"/>
	<stop  offset="0.3571" style="stop-color:#FFD326"/>
	<stop  offset="0.6723" style="stop-color:#00E348"/>
	<stop  offset="0.9944" style="stop-color:#22B0F5"/>
</linearGradient>
<path class="st1" d="M201.6,2H43.4C30.1,2,19.2,12.9,19.2,26.3v159.5c0,13.5,10.9,24.3,24.2,24.3h133.8l-6.3-21.8l15.1,14l14.3,13.2
	l25.4,22.4V26.3C225.8,12.9,214.9,2,201.6,2z M156,156.1c0,0-4.2-5.1-7.8-9.6c15.5-4.4,21.4-14,21.4-14c-4.8,3.2-9.4,5.4-13.6,7
	c-5.9,2.5-11.6,4.1-17.1,5.1c-11.3,2.1-21.7,1.5-30.6-0.1c-6.7-1.3-12.5-3.2-17.3-5.1c-2.7-1.1-5.7-2.4-8.6-4
	c-0.4-0.2-0.7-0.4-1.1-0.6c-0.2-0.1-0.4-0.2-0.5-0.4c-2.1-1.2-3.3-2-3.3-2s5.7,9.4,20.7,13.9c-3.5,4.5-7.9,9.8-7.9,9.8
	c-26.1-0.8-36-17.9-36-17.9c0-38,17-68.8,17-68.8c17-12.7,33.2-12.4,33.2-12.4l1.2,1.4c-21.2,6.1-31,15.5-31,15.5s2.6-1.4,7-3.4
	c12.6-5.5,22.7-7.1,26.8-7.4c0.7-0.1,1.3-0.2,2-0.2c7.2-0.9,15.3-1.2,23.8-0.2c11.2,1.3,23.2,4.6,35.5,11.3c0,0-9.3-8.9-29.4-15
	L142,57c0,0,16.2-0.4,33.2,12.4c0,0,17,30.8,17,68.8C192.1,138.2,182.1,155.3,156,156.1z"/>
</svg>
