<?xml version="1.0" encoding="utf-8"?>
<!-- Generator: Adobe Illustrator 24.1.2, SVG Export Plug-In . SVG Version: 6.00 Build 0)  -->
<svg version="1.1" id="Layer_1" xmlns="http://www.w3.org/2000/svg" xmlns:xlink="http://www.w3.org/1999/xlink" x="0px" y="0px"
	 viewBox="0 0 256 256" style="enable-background:new 0 0 256 256;" xml:space="preserve">
<style type="text/css">
	.st0{fill:url(#SVGID_1_);}
</style>
<linearGradient id="SVGID_1_" gradientUnits="userSpaceOnUse" x1="0.6872" y1="128" x2="255.3128" y2="128">
	<stop  offset="0" style="stop-color:#F8011A"/>
	<stop  offset="8.444548e-02" style="stop-color:#FA3F1E"/>
	<stop  offset="0.1794" style="stop-color:#FC7E21"/>
	<stop  offset="0.2598" style="stop-color:#FEAC24"/>
	<stop  offset="0.3215" style="stop-color:#FFC825"/>
	<stop  offset="0.3571" style="stop-color:#FFD326"/>
	<stop  offset="0.6723" style="stop-color:#00E348"/>
	<stop  offset="0.9944" style="stop-color:#22B0F5"/>
</linearGradient>
<path class="st0" d="M0.7,224.3v4.3h75.8v-4.3l-26.7-32.4c-2.9-3-4.2-7.1-3.7-11.2V83.4l66.6,145.2h7.7l57.2-145.2v115.7
	c0,3.1,0,3.7-2,5.7l-20.6,20v4.3h99.9v-4.3L235,205.3c-1.8-1.3-2.6-3.5-2.3-5.7V56.4c-0.4-2.2,0.5-4.4,2.3-5.7l20.3-19.5v-4.3h-70.4
	l-50.2,125.1L77.7,26.9H3.9v4.3l23.8,28.6c2.3,2.1,3.5,5.2,3.2,8.3v112.5c0.7,4.1-0.6,8.2-3.4,11.2L0.7,224.3z"/>
</svg>
